<svg width="16" height="13" viewBox="0 0 16 13" fill="none" xmlns="http://www.w3.org/2000/svg">
<path d="M15.4462 2.89134C15.2896 2.68906 15.0883 2.52587 14.8579 2.4146C14.6276 2.30333 14.3745 2.24702 14.1188 2.25009H4.62375L3.8025 0.759464C3.66999 0.526436 3.47752 0.333123 3.24507 0.199591C3.01263 0.0660587 2.74868 -0.00282554 2.48062 8.87793e-05H0.5625C0.413316 8.87793e-05 0.270242 0.0593521 0.164752 0.164841C0.0592632 0.270331 0 0.413404 0 0.562589C0 0.711773 0.0592632 0.854847 0.164752 0.960336C0.270242 1.06583 0.413316 1.12509 0.5625 1.12509H2.48062C2.5472 1.12224 2.61336 1.13683 2.67255 1.16742C2.73175 1.198 2.78193 1.24352 2.81813 1.29946L3.74625 2.98696L4.23 8.22946C4.29484 8.77227 4.56308 9.2703 4.98063 9.62313C5.39818 9.97596 5.93399 10.1574 6.48 10.1307H12.3131C12.7955 10.1429 13.2685 9.99655 13.6597 9.71409C14.0509 9.43163 14.3386 9.02865 14.4788 8.56696L15.6994 4.16821C15.7595 3.95037 15.768 3.72149 15.724 3.4998C15.6801 3.27812 15.5849 3.06977 15.4462 2.89134ZM14.625 3.85884L13.4044 8.26321C13.3283 8.48864 13.1804 8.68285 12.9832 8.81598C12.7861 8.94911 12.5506 9.0138 12.3131 9.00009H6.4575C6.19455 9.01936 5.93383 8.94024 5.72594 8.77808C5.51805 8.61593 5.37783 8.38231 5.3325 8.12259L4.91062 3.37509H14.1188C14.2009 3.37426 14.2823 3.39147 14.3572 3.42548C14.432 3.45949 14.4985 3.50949 14.5519 3.57196C14.5854 3.61086 14.6095 3.65701 14.6222 3.7068C14.6349 3.75658 14.6358 3.80862 14.625 3.85884Z" fill="white"/>
<path d="M6.75 12.9376C7.37132 12.9376 7.875 12.4339 7.875 11.8126C7.875 11.1913 7.37132 10.6876 6.75 10.6876C6.12868 10.6876 5.625 11.1913 5.625 11.8126C5.625 12.4339 6.12868 12.9376 6.75 12.9376Z" fill="white"/>
<path d="M12.375 12.9376C12.9963 12.9376 13.5 12.4339 13.5 11.8126C13.5 11.1913 12.9963 10.6876 12.375 10.6876C11.7537 10.6876 11.25 11.1913 11.25 11.8126C11.25 12.4339 11.7537 12.9376 12.375 12.9376Z" fill="white"/>
</svg>
