<svg width="13" height="13" viewBox="0 0 13 13" fill="none" xmlns="http://www.w3.org/2000/svg">
<path d="M12.6545 5.91412L7.33354 0.5923C7.1127 0.371453 6.81267 0.247314 6.50049 0.247314C6.18802 0.247314 5.888 0.371453 5.66715 0.5923L0.345052 5.91412C0.00826749 6.2509 -0.092683 6.75339 0.0897066 7.19367C0.272379 7.63395 0.701914 7.91673 1.17839 7.91673H1.85818V11.7232C1.85818 12.2924 2.3126 12.753 2.88211 12.753H3.78783V9.31194C3.78783 9.04981 4.00444 8.84508 4.26629 8.84508H6.026C6.28784 8.84508 6.49908 9.05009 6.49908 9.31194V12.7527H10.1183C10.6875 12.7527 11.1397 12.2921 11.1397 11.7229V7.91673H11.8215C12.2979 7.91673 12.7275 7.63395 12.9101 7.19367C13.0923 6.75339 12.9916 6.25118 12.6545 5.91412Z" fill="black"/>
</svg>
