<svg width="18" height="18" viewBox="0 0 18 18" fill="none" xmlns="http://www.w3.org/2000/svg">
<path d="M16.1738 10.6525C18.7757 8.04849 18.5929 3.71318 15.6535 1.34846C13.3469 -0.495454 9.98559 -0.439151 7.74938 1.46107C5.10531 3.6991 4.82402 7.58399 6.91959 10.1598L5.31627 11.7645L4.85215 11.3L0.379734 15.762C-0.126578 16.2687 -0.126578 17.1132 0.379734 17.62C0.886045 18.1267 1.7299 18.1267 2.23621 17.62L6.70863 13.1439L6.24451 12.6794L7.83376 11.0888C10.295 13.0735 13.8954 12.9328 16.1738 10.6525ZM8.28382 2.75603C10.2106 0.827661 13.3329 0.827661 15.2456 2.75603C17.1583 4.6844 17.1724 7.8092 15.2456 9.72349C13.3188 11.6519 10.1965 11.6519 8.28382 9.72349C6.37108 7.79513 6.35702 4.67032 8.28382 2.75603Z" fill="#231F20"/>
</svg>
