<svg width="16" height="16" viewBox="0 0 16 16" fill="none" xmlns="http://www.w3.org/2000/svg">
<g clip-path="url(#clip0_8_26)">
<path d="M15.3749 14.4626V14.4563C15.3749 14.4501 15.3749 14.4438 15.3749 14.4438C15.3187 11.5563 13.6062 9.07505 11.1437 7.91255C11.8124 7.1688 12.2187 6.1813 12.2187 5.1063C12.2187 2.7813 10.3312 0.893799 8.00615 0.893799C5.68115 0.893799 3.79365 2.7813 3.79365 5.1063C3.79365 7.4313 5.68115 9.3188 8.00615 9.3188C8.8249 9.3188 9.5874 9.0813 10.2374 8.6813C12.4374 9.5313 14.0312 11.6 14.1874 14.0626H1.8249C1.9249 12.5126 2.59365 11.1188 3.6249 10.0813C3.86865 10.0063 4.0499 9.78755 4.0499 9.51255C4.0499 9.18755 3.7874 8.9188 3.45615 8.9188C3.2374 8.9188 3.0499 9.03755 2.94365 9.2188C1.5624 10.5188 0.681152 12.35 0.624902 14.3876C0.624902 14.4125 0.618652 14.4313 0.618652 14.4563C0.618652 14.4688 0.618652 14.4813 0.624902 14.5001C0.624902 14.5313 0.624902 14.5563 0.624902 14.5876H0.637402C0.693652 14.8876 0.962402 15.1188 1.28115 15.1188C1.2874 15.1188 1.29365 15.1188 1.30615 15.1188H14.6937C14.6999 15.1188 14.7062 15.1188 14.7187 15.1188C15.0374 15.1188 15.3062 14.8876 15.3624 14.5876H15.3749C15.3749 14.5438 15.3749 14.5063 15.3749 14.4626ZM7.9999 8.2688C6.25615 8.2688 4.8374 6.8563 4.8374 5.1063C4.8374 3.3563 6.2499 1.9438 7.9999 1.9438C9.74365 1.9438 11.1562 3.3563 11.1562 5.1063C11.1624 6.85005 9.74365 8.2688 7.9999 8.2688Z" fill="white"/>
</g>
<defs>
<clipPath id="clip0_8_26">
<rect width="16" height="16" fill="white"/>
</clipPath>
</defs>
</svg>
