<svg width="17" height="17" viewBox="0 0 17 17" fill="none" xmlns="http://www.w3.org/2000/svg">
<path d="M15.0586 11.9395C16.2718 10.8062 17 9.3544 17 7.77C17 4.149 13.1937 1.21423 8.5 1.21423C3.80573 1.21423 0 4.14957 0 7.77C0 11.3904 3.80573 14.3263 8.5 14.3263C9.98183 14.3263 11.3764 14.0322 12.5902 13.5177L15.6848 15.0964L15.0586 11.9395ZM3.23227 11.3145C1.96407 10.3359 1.26537 9.0773 1.26537 7.76943C1.26537 6.461 1.9635 5.20243 3.23227 4.22437C4.62343 3.1511 6.494 2.56007 8.49943 2.56007C10.5049 2.56007 12.376 3.1511 13.7672 4.22437C15.0342 5.20243 15.7335 6.461 15.7335 7.76943C15.7335 9.0773 15.0359 10.3364 13.7672 11.3145C12.376 12.3878 10.5049 12.9782 8.49943 12.9782C6.494 12.9782 4.62343 12.3878 3.23227 11.3145Z" fill="black"/>
<path d="M5.48467 8.7197C5.99855 8.7197 6.41513 8.30311 6.41513 7.78923C6.41513 7.27535 5.99855 6.85876 5.48467 6.85876C4.97078 6.85876 4.5542 7.27535 4.5542 7.78923C4.5542 8.30311 4.97078 8.7197 5.48467 8.7197Z" fill="black"/>
<path d="M8.4998 8.7197C9.01369 8.7197 9.43027 8.30311 9.43027 7.78923C9.43027 7.27535 9.01369 6.85876 8.4998 6.85876C7.98592 6.85876 7.56934 7.27535 7.56934 7.78923C7.56934 8.30311 7.98592 8.7197 8.4998 8.7197Z" fill="black"/>
<path d="M11.5146 8.71917C12.0282 8.71917 12.4445 8.30284 12.4445 7.78927C12.4445 7.27571 12.0282 6.85938 11.5146 6.85938C11.001 6.85938 10.5847 7.27571 10.5847 7.78927C10.5847 8.30284 11.001 8.71917 11.5146 8.71917Z" fill="black"/>
</svg>
