<svg width="30" height="30" viewBox="0 0 30 30" fill="none" xmlns="http://www.w3.org/2000/svg">
<rect width="30" height="30" rx="5" fill="#FFA939"/>
<path d="M25 6.99902C24.22 7.46202 22.655 8.09302 21.735 8.27502C21.708 8.28202 21.686 8.29102 21.66 8.29802C20.847 7.49602 19.733 6.99902 18.5 6.99902C16.015 6.99902 14 9.01402 14 11.499C14 11.63 13.989 11.871 14 11.999C10.647 11.999 8.095 10.243 6.265 7.99902C6.066 8.49902 5.979 9.28902 5.979 10.031C5.979 11.432 7.074 12.808 8.779 13.661C8.465 13.742 8.119 13.8 7.759 13.8C7.178 13.8 6.563 13.647 6 13.183C6 13.2 6 13.216 6 13.234C6 15.192 8.078 16.525 9.926 16.896C9.551 17.117 8.795 17.139 8.426 17.139C8.166 17.139 7.246 17.02 7 16.974C7.514 18.579 9.368 19.481 11.135 19.513C9.753 20.597 8.794 20.999 5.964 20.999H5C6.788 22.145 9.065 23 11.347 23C18.777 23 23 17.337 23 11.999C23 11.913 22.998 11.733 22.995 11.552C22.995 11.534 23 11.517 23 11.499C23 11.472 22.992 11.446 22.992 11.419C22.989 11.283 22.986 11.156 22.983 11.09C23.773 10.52 24.458 9.80902 25 8.99902C24.275 9.32102 23.497 9.53702 22.68 9.63502C23.514 9.13502 24.699 7.94302 25 6.99902Z" fill="#0D0D0C"/>
</svg>
