<svg width="30" height="30" viewBox="0 0 30 30" fill="none" xmlns="http://www.w3.org/2000/svg">
<rect width="30" height="30" rx="5" fill="#FFA939"/>
<path d="M15 5C9.477 5 5 9.477 5 15C5 20.013 8.693 24.153 13.505 24.876V17.65H11.031V15.021H13.505V13.272C13.505 10.376 14.916 9.105 17.323 9.105C18.476 9.105 19.085 9.19 19.374 9.229V11.523H17.732C16.71 11.523 16.353 12.492 16.353 13.584V15.021H19.348L18.942 17.65H16.354V24.897C21.235 24.236 25 20.062 25 15C25 9.477 20.523 5 15 5Z" fill="#0D0D0C"/>
</svg>
