<svg width="30" height="30" viewBox="0 0 30 30" fill="none" xmlns="http://www.w3.org/2000/svg">
<rect width="30" height="30" rx="5" fill="#FFA939"/>
<path d="M11 6C8.239 6 6 8.239 6 11V19C6 21.761 8.239 24 11 24H19C21.761 24 24 21.761 24 19V11C24 8.239 21.761 6 19 6H11ZM21 8C21.552 8 22 8.448 22 9C22 9.552 21.552 10 21 10C20.448 10 20 9.552 20 9C20 8.448 20.448 8 21 8ZM15 10C17.761 10 20 12.239 20 15C20 17.761 17.761 20 15 20C12.239 20 10 17.761 10 15C10 12.239 12.239 10 15 10ZM15 12C14.2044 12 13.4413 12.3161 12.8787 12.8787C12.3161 13.4413 12 14.2044 12 15C12 15.7956 12.3161 16.5587 12.8787 17.1213C13.4413 17.6839 14.2044 18 15 18C15.7956 18 16.5587 17.6839 17.1213 17.1213C17.6839 16.5587 18 15.7956 18 15C18 14.2044 17.6839 13.4413 17.1213 12.8787C16.5587 12.3161 15.7956 12 15 12Z" fill="#0D0D0C"/>
</svg>
