<svg width="30" height="30" viewBox="0 0 30 30" fill="none" xmlns="http://www.w3.org/2000/svg">
<rect width="30" height="30" rx="5" fill="#FFA939"/>
<path d="M22 6H8C6.895 6 6 6.895 6 8V22C6 23.105 6.895 24 8 24H22C23.105 24 24 23.105 24 22V8C24 6.895 23.105 6 22 6ZM12 20H9.477V13H12V20ZM10.694 11.717C9.923 11.717 9.408 11.203 9.408 10.517C9.408 9.831 9.922 9.317 10.779 9.317C11.55 9.317 12.065 9.831 12.065 10.517C12.065 11.203 11.551 11.717 10.694 11.717ZM21 20H18.558V16.174C18.558 15.116 17.907 14.872 17.663 14.872C17.419 14.872 16.605 15.035 16.605 16.174C16.605 16.337 16.605 20 16.605 20H14.082V13H16.605V13.977C16.93 13.407 17.581 13 18.802 13C20.023 13 21 13.977 21 16.174V20Z" fill="#0D0D0C"/>
</svg>
